<svg xmlns="http://www.w3.org/2000/svg" width="559" height="485" viewBox="0 0 559 485" fill="none"><path d="M404.233 264.499C407.061 257.601 408.757 250.477 409.548 243.24L424.023 237.925L421.535 221.302L419.047 204.679L403.668 203.887C400.841 197.215 397.109 190.883 392.36 185.115L398.919 171.093L385.462 161.142L372.005 151.191L360.584 161.594C353.686 158.767 346.561 157.071 339.324 156.279L334.009 141.805L317.386 144.293L300.763 146.781L299.971 162.16C293.3 164.987 286.967 168.719 281.2 173.468L267.178 166.909L257.226 180.366L247.275 193.823L257.679 205.244C254.852 212.142 253.155 219.266 252.364 226.504L237.889 231.819L240.377 248.442L242.865 265.065L258.244 265.856C261.071 272.528 264.803 278.861 269.552 284.628L262.994 298.65L276.45 308.601L289.907 318.553L301.328 308.149C308.226 310.976 315.351 312.672 322.588 313.464L327.903 327.939L344.526 325.451L361.149 322.963L361.941 307.584C368.613 304.757 374.945 301.025 380.712 296.276L394.735 302.834L404.686 289.377L414.637 275.921L404.233 264.499ZM306.417 268.118C288.098 254.548 284.253 228.878 297.823 210.559C311.393 192.24 337.063 188.395 355.382 201.965C373.701 215.535 377.546 241.204 363.976 259.524C350.406 277.73 324.623 281.575 306.417 268.118Z" fill="#D8E4F1"></path><path d="M542.081 258.846V406.871C542.081 410.829 538.915 413.995 534.957 413.995H425.267C421.309 413.995 418.143 410.829 418.143 406.871V258.846C418.143 254.888 421.309 251.722 425.267 251.722H534.957C538.915 251.722 542.081 254.888 542.081 258.846Z" fill="#E4F3FF"></path><path d="M492.551 313.917H423.91C420.63 313.917 418.029 311.316 418.029 308.036V269.023C418.029 265.743 420.63 263.143 423.91 263.143H492.551C495.83 263.143 498.431 265.743 498.431 269.023V308.036C498.431 311.316 495.717 313.917 492.551 313.917Z" fill="#B5DEFF"></path><path d="M270.005 127.444C268.421 121.225 266.047 115.344 262.993 109.916L270.457 98.9473L260.393 88.6568L250.328 78.3663L239.133 85.6035C233.818 82.3242 227.938 79.8363 221.718 78.1401L219.231 65.0226L204.869 64.9095L190.395 64.7964L187.681 77.8009C181.461 79.384 175.581 81.7588 170.153 84.812L159.184 77.3485L148.893 87.4129L138.603 97.4772L145.84 108.672C142.561 113.987 140.073 119.868 138.377 126.087L125.259 128.575L125.146 143.049L125.033 157.524L138.037 160.238C139.621 166.457 141.995 172.338 145.048 177.766L137.585 188.735L147.649 199.025L157.714 209.316L168.909 202.078C174.224 205.358 180.104 207.846 186.324 209.542L188.811 222.659L203.286 222.773L217.76 222.886L220.474 209.881C226.694 208.298 232.574 205.923 238.002 202.87L248.971 210.333L259.262 200.269L269.552 190.205L262.315 179.01C265.594 173.695 268.082 167.814 269.778 161.595L282.896 159.107V144.746L283.009 130.271L270.005 127.444ZM203.512 179.236C183.949 179.01 168.23 162.952 168.457 143.389C168.683 123.825 184.74 108.107 204.304 108.333C223.867 108.559 239.585 124.617 239.359 144.18C239.133 163.743 223.075 179.462 203.512 179.236Z" fill="#D8E4F1"></path><path d="M496.848 402.913C498.77 403.591 500.919 403.931 503.067 403.931C509.739 404.044 515.619 400.877 519.351 396.015C521.952 392.622 523.535 388.438 523.648 383.802C523.648 383.35 523.648 382.897 523.648 382.445C523.535 380.41 523.083 378.487 522.404 376.565C519.577 368.875 512.227 363.334 503.52 363.221C498.883 363.108 494.473 364.691 491.081 367.292C486.218 370.911 483.052 376.678 482.939 383.237C482.939 392.396 488.706 400.199 496.848 402.913ZM488.14 383.463C488.253 378.6 490.515 374.303 494.134 371.589C496.735 369.554 500.014 368.423 503.52 368.423C510.078 368.536 515.506 372.72 517.655 378.487C518.107 379.844 518.446 381.314 518.56 382.897C518.56 383.237 518.56 383.576 518.56 383.915C518.56 387.308 517.316 390.474 515.393 393.075C512.566 396.693 508.156 399.068 503.18 398.955C501.484 398.955 500.014 398.616 498.431 398.163C492.438 396.015 488.027 390.248 488.14 383.463Z" fill="#BAE0FF"></path><path d="M515.393 392.962L519.464 396.128C515.733 400.991 509.739 404.044 503.181 404.044C501.032 404.044 498.883 403.591 496.961 403.026L498.544 398.163C500.014 398.616 501.597 398.955 503.181 398.955C508.156 398.955 512.566 396.693 515.393 392.962Z" fill="#1A598C"></path><path d="M518.56 382.784L523.648 382.558C523.648 383.01 523.648 383.463 523.648 383.915C523.535 388.551 522.065 392.736 519.351 396.128L515.28 392.962C517.203 390.474 518.447 387.308 518.447 383.802C518.56 383.463 518.56 383.124 518.56 382.784Z" fill="#2273B5"></path><path d="M518.56 382.784C518.447 381.201 518.221 379.844 517.655 378.374L522.405 376.678C523.083 378.487 523.535 380.523 523.649 382.558L518.56 382.784Z" fill="#2273B5"></path><path d="M491.194 367.405C494.699 364.804 498.996 363.22 503.633 363.334C512.34 363.447 519.69 368.988 522.517 376.677L517.768 378.374C515.619 372.606 510.192 368.422 503.633 368.309C500.127 368.309 496.848 369.44 494.247 371.476L491.194 367.405Z" fill="#4DA8F2"></path><path d="M441.438 359.942C440.42 358.585 438.837 357.793 437.027 357.68C434.539 357.68 432.391 359.263 431.712 361.525C431.486 362.09 431.373 362.656 431.373 363.221C431.373 363.899 431.486 364.578 431.712 365.256C432.052 366.274 432.73 367.066 433.522 367.744C434.313 368.423 435.331 368.762 436.462 368.875C436.575 368.875 436.801 368.875 436.914 368.875C437.027 368.875 437.14 368.875 437.14 368.875H437.253C437.819 368.875 438.384 368.762 438.837 368.536C440.985 367.744 442.455 365.709 442.455 363.334C442.568 362.09 442.116 360.959 441.438 359.942ZM438.384 367.292C438.045 367.405 437.593 367.518 437.14 367.518C437.027 367.518 436.914 367.518 436.914 367.518C436.462 367.518 436.123 367.405 435.783 367.292C435.331 367.179 434.766 366.953 434.426 366.613C434.313 366.5 434.087 366.387 433.974 366.274C433.183 365.483 432.73 364.465 432.73 363.334C432.73 362.995 432.73 362.769 432.843 362.429C432.843 362.316 432.956 362.203 432.956 361.977C433.522 360.281 435.105 359.15 437.027 359.15C438.384 359.15 439.515 359.829 440.307 360.846C440.872 361.525 441.211 362.429 441.211 363.447C441.098 365.143 439.967 366.727 438.384 367.292Z" fill="#4DA8F2"></path><path d="M521.048 279.087H514.489C513.019 279.087 511.888 277.956 511.888 276.486V269.928C511.888 268.457 513.019 267.327 514.489 267.327H521.048C522.518 267.327 523.649 268.457 523.649 269.928V276.486C523.649 277.843 522.518 279.087 521.048 279.087ZM514.489 267.779C513.358 267.779 512.34 268.684 512.34 269.928V276.486C512.34 277.617 513.245 278.635 514.489 278.635H521.048C522.178 278.635 523.196 277.73 523.196 276.486V269.928C523.196 268.797 522.292 267.779 521.048 267.779H514.489Z" fill="#78C2FF"></path><path d="M521.048 294.58H514.489C513.019 294.58 511.888 293.449 511.888 291.979V285.42C511.888 283.95 513.019 282.819 514.489 282.819H521.048C522.518 282.819 523.649 283.95 523.649 285.42V291.979C523.649 293.449 522.518 294.58 521.048 294.58ZM514.489 283.385C513.358 283.385 512.34 284.289 512.34 285.533V292.092C512.34 293.223 513.245 294.241 514.489 294.241H521.048C522.178 294.241 523.196 293.336 523.196 292.092V285.533C523.196 284.402 522.292 283.385 521.048 283.385H514.489Z" fill="#78C2FF"></path><path d="M521.047 309.846H514.489C513.245 309.846 512.114 308.828 512.114 307.471V300.912C512.114 299.668 513.132 298.538 514.489 298.538H521.047C522.291 298.538 523.422 299.555 523.422 300.912V307.471C523.422 308.828 522.291 309.846 521.047 309.846Z" fill="#78C2FF"></path><path d="M517.429 306.792L514.602 304.304C514.376 304.078 514.376 303.739 514.602 303.513C514.828 303.287 515.167 303.287 515.393 303.513L517.429 305.209L520.256 302.043C520.482 301.817 520.821 301.817 521.048 302.043C521.274 302.269 521.274 302.608 521.048 302.834L517.429 306.792Z" fill="#F3F3F3"></path><path d="M523.422 326.017V327.939C523.422 329.183 522.404 330.088 521.274 330.088H471.97C470.726 330.088 469.821 329.07 469.821 327.939V326.017C469.821 324.773 470.839 323.868 471.97 323.868H521.274C522.404 323.755 523.422 324.773 523.422 326.017Z" fill="#78C2FF"></path><path d="M523.422 337.212V339.134C523.422 340.378 522.404 341.283 521.274 341.283H471.97C470.726 341.283 469.821 340.265 469.821 339.134V337.212C469.821 335.968 470.839 335.063 471.97 335.063H521.274C522.404 335.063 523.422 336.081 523.422 337.212Z" fill="#78C2FF"></path><path d="M521.161 353.27H471.857C470.5 353.27 469.369 352.139 469.369 350.782V348.859C469.369 347.502 470.5 346.372 471.857 346.372H521.161C522.518 346.372 523.648 347.502 523.648 348.859V350.782C523.648 352.139 522.631 353.27 521.161 353.27ZM471.857 346.937C470.839 346.937 469.934 347.729 469.934 348.859V350.782C469.934 351.8 470.839 352.704 471.857 352.704H521.161C522.178 352.704 523.083 351.913 523.083 350.782V348.859C523.083 347.842 522.291 346.937 521.161 346.937H471.857Z" fill="#8FBBFF"></path><path d="M216.856 288.7C216.856 288.7 222.623 291.414 224.093 292.658C225.563 293.901 231.67 298.425 233.14 299.443C234.61 300.46 230.878 303.513 220.135 298.877C209.166 294.241 216.856 288.7 216.856 288.7Z" fill="#C69076"></path><path d="M448.901 218.928L467.22 189.639L457.721 194.049L448.901 218.928Z" fill="#D6D6D6"></path><path d="M448.901 218.928L449.806 201.4L456.591 197.442L448.901 218.928Z" fill="#E8E8E8"></path><path d="M462.923 196.311L465.298 199.364L448.901 218.928L462.923 196.311Z" fill="#C2C2C2"></path><path d="M366.012 305.323C366.012 305.323 335.479 330.314 347.692 352.478C360.018 374.642 367.821 356.662 367.821 356.662C367.821 356.662 376.981 360.168 364.994 333.141C359.566 320.25 366.012 305.323 366.012 305.323Z" fill="#BBD070"></path><path d="M318.969 263.934C318.969 263.934 295.222 287.908 321.683 325.564C348.145 363.221 342.264 381.653 342.264 381.653C342.264 381.653 387.497 322.963 318.969 263.934Z" fill="#AAD371"></path><path d="M350.632 370.684C363.976 374.416 355.042 334.837 335.592 321.267C316.142 307.697 298.049 305.209 287.532 292.77C287.532 292.77 284.818 352.252 350.632 370.684Z" fill="#8FBF55"></path><path d="M558.252 434.802H267.404V440.456H558.252V434.802Z" fill="#D8E4F1"></path><path d="M153.23 221.56C154.135 209.46 154.7 198.152 155.152 187.635C152.212 186.052 148.707 184.243 145.88 182.999C137.172 178.815 125.073 173.274 117.27 169.768C112.747 167.733 108.223 166.15 108.223 166.15C108.223 166.15 77.1256 163.209 74.6378 163.323C73.8462 163.323 70.0014 164.68 64.9127 166.715C54.0568 170.786 32.7973 179.267 29.4048 181.642C24.4292 185.147 6.67526 272.108 6.22293 277.988C5.7706 283.755 30.3095 291.558 53.1521 297.551C53.1521 306.372 52.926 318.698 52.8129 330.006C52.8129 331.928 52.6998 333.851 52.6998 335.66H152.325C152.212 333.738 152.099 331.815 151.986 330.006C151.986 329.78 151.986 329.554 151.986 329.328C151.647 321.638 150.177 308.068 150.516 294.724C150.516 294.724 150.29 280.702 151.647 274.596C151.647 248.021 153.23 221.56 153.23 221.56ZM27.0301 272.673C27.1432 261.365 42.2962 240.332 42.2962 240.332C42.2962 240.332 42.9747 239.992 42.9747 240.105L43.7663 239.992L46.141 237.731C46.7064 239.766 51.6821 268.15 52.926 284.773C38.6776 281.946 26.917 278.101 27.0301 272.673Z" fill="white"></path><path d="M155.152 330.119C154.474 325.369 153.908 320.733 153.343 316.097C153.343 316.097 153.343 316.097 153.343 315.984C153.117 314.4 153.004 312.93 152.778 311.46C152.778 311.347 152.778 311.347 152.778 311.234C152.099 304.902 151.421 298.795 150.968 293.254C150.629 288.957 150.968 284.773 151.534 280.702C153.23 252.205 154.135 222.012 154.135 222.012C155.039 209.686 155.605 198.152 155.944 187.409C155.944 187.409 116.006 170.518 112.5 169.5C112.5 169.5 120.775 185.373 126.316 224.161C128.465 239.088 132.423 264.192 135.25 289.748C136.833 303.545 139.66 317.68 141.922 330.119C142.261 332.041 142.6 333.964 142.826 335.773H155.831C155.605 333.851 155.379 331.928 155.152 330.119Z" fill="#1E5083"></path><path d="M90.2431 284.207C91.8263 269.733 93.1833 255.371 92.5048 247.455C87.0768 184.016 71.9238 167.167 69.6621 164.792C67.9659 165.471 61.4071 167.845 59.5978 168.637C49.1942 172.708 27.9347 180.285 25.1077 182.32C20.132 185.826 0.568767 276.97 0.00335505 282.85C-0.335892 286.808 25.1077 295.176 51.1166 302.64C50.8904 309.764 49.1942 319.602 46.8195 330.006C46.3671 331.815 45.9148 333.737 45.4625 335.66H84.2497C84.4759 333.737 84.7021 331.928 84.9282 330.006C85.6067 324.352 86.3983 318.584 87.0768 312.365C97.9327 315.192 105.396 317.001 105.396 317.001C105.396 317.001 115.574 299.7 118.627 292.688C119.079 291.558 105.962 288.391 90.2431 284.207ZM39.0168 262.156C38.6775 249.152 43.0878 240.331 43.0878 240.331C44.3317 244.742 46.141 257.52 47.7241 270.185C42.4093 267.471 39.0168 264.757 39.0168 262.156Z" fill="#1E5083"></path><path d="M73.1677 164.227C73.1677 164.227 77.1256 156.764 75.9948 135.617C75.6555 129.737 106.866 149.526 106.866 149.526C106.866 149.526 106.753 151.562 106.64 154.276C106.64 155.407 106.64 156.65 106.64 157.894C106.64 158.234 106.64 158.573 106.64 158.912C106.64 159.478 106.64 160.043 106.64 160.608C106.64 161.287 106.64 161.965 106.753 162.644C106.753 163.435 106.866 164.114 106.866 164.792C106.979 166.036 107.771 168.298 107.997 168.976C109.467 172.369 84.8152 172.595 73.1677 164.227Z" fill="#C69076"></path><path d="M99.2897 177.684L105.057 185.373C105.057 185.373 101.664 189.897 95.6711 186.504L99.2897 177.684Z" fill="#133252"></path><path d="M103.474 185.712C103.474 185.712 124.507 237.052 119.984 302.3L113.312 314.287L105.849 303.997C105.849 303.997 104.605 217.376 98.7243 185.486L103.474 185.712Z" fill="#133252"></path><path d="M105.396 170.446L99.2898 177.683C99.2898 177.683 89.4516 175.761 86.5114 170.672C83.5713 165.47 105.396 170.446 105.396 170.446Z" fill="#C69076"></path><path d="M75.0901 157.668C75.0901 157.668 89.3385 173.839 99.2898 177.684L94.6534 189.105L71.9238 164.001L75.0901 157.668Z" fill="#C4C1CC"></path><path d="M113 170.5C113.8 172.1 108.5 182.667 105.5 187L99 177.5L105 170.5L108 168.5C109.333 168.5 112.2 168.9 113 170.5Z" fill="#C4C1CC"></path><path d="M221.532 303.545C221.532 303.545 202.647 285.225 190.208 282.172C184.441 280.815 176.864 272.786 169.74 263.514C167.365 260.46 165.104 257.181 162.842 254.015C154.022 241.349 147.124 229.137 147.124 229.137C147.124 229.137 121.115 198.604 142.035 185.034C142.035 185.034 150.968 184.808 155.944 187.522C161.033 190.236 171.776 212.74 173.585 216.697C175.394 220.655 195.184 257.633 196.541 258.538C197.898 259.33 200.046 262.383 207.962 266.68C217.687 271.882 232.84 287.148 232.84 287.148L221.532 303.545Z" fill="#1E5083"></path><path d="M130.727 324.691C130.727 324.691 128.126 324.578 126.995 324.012C126.995 324.012 125.073 322.768 123.602 321.977C123.15 321.751 122.698 321.524 122.472 321.411C121.341 320.959 118.627 320.281 116.139 318.358C113.651 316.436 105.509 308.859 105.509 308.859L110.711 300.83L113.086 292.802C113.086 292.802 131.971 294.724 134.571 296.194C134.798 296.307 135.024 296.533 135.25 296.646C137.285 298.116 138.19 300.039 139.095 300.943C139.434 301.283 142.713 304.788 142.6 306.258C142.374 308.294 141.356 309.538 140.112 310.103C140.112 310.103 139.434 313.948 137.399 315.644C137.399 315.644 136.946 319.263 133.78 320.62C133.78 320.733 132.875 324.352 130.727 324.691Z" fill="#C69076"></path><path d="M100.647 80.8851C100.647 80.8851 134.798 72.6301 127.673 115.941C120.436 159.251 112.294 162.757 91.487 154.049C70.6799 145.455 72.1499 117.75 70.906 104.18C69.549 90.7233 89.6777 81.5636 100.647 80.8851Z" fill="#C69076"></path><path d="M82.6666 110.852C82.2143 107.007 74.6378 105.763 74.0724 111.53C73.5069 117.298 77.691 127.249 80.5181 126.231C83.4582 125.1 83.3451 116.167 82.6666 110.852Z" fill="#C69076"></path><path d="M72.8283 126.344C72.8283 126.344 73.5068 112.774 78.4824 112.209C83.4581 111.757 84.2497 117.185 84.2497 117.185L89.2253 118.089C89.2253 118.089 87.416 106.216 92.3916 104.067C97.3672 101.918 124.62 110.173 128.578 106.555C132.536 103.049 130.274 78.8496 123.037 75.6833C115.8 72.517 95.7841 65.3928 81.4226 75.4571C81.4226 75.4571 70.0013 74.3263 68.5312 83.486C66.948 92.6457 69.5489 119.559 72.8283 126.344Z" fill="#16202E"></path><path d="M119.531 292.802L105.396 317.114C105.396 317.114 67.9659 307.502 59.2585 305.015L79.161 281.267C79.2741 281.267 108.676 287.939 119.531 292.802Z" fill="#1E5083"></path><path d="M106.753 162.757C88.4338 160.834 81.3096 146.812 81.3096 146.812C92.844 158.234 106.64 157.894 106.64 157.894C106.64 158.234 106.64 158.573 106.64 158.912C106.64 159.477 106.64 160.043 106.64 160.608C106.64 161.4 106.64 162.078 106.753 162.757Z" fill="#A77860"></path><path d="M163.962 272.899C185.221 294.724 213.266 322.316 213.266 322.316L224.235 301.509C224.235 301.509 199.244 272.22 182.394 252.77C177.193 255.258 167.694 261.365 163.962 272.899Z" fill="#C69076"></path><path d="M141.183 239.653L131.232 332.38H262.52L272.472 239.653H141.183Z" fill="#9DBCDC"></path><path d="M120.716 332.398H142.654V324.03H120.716V332.398Z" fill="#9DBCDC"></path><path d="M273.489 332.154H7.74565V337.808H273.489V332.154Z" fill="#D8E4F1"></path><path d="M194.558 284.546C193.54 289.748 195.915 294.611 199.986 295.402C204.057 296.194 208.128 292.688 209.145 287.599C210.163 282.398 207.788 277.535 203.717 276.744C199.76 275.839 195.576 279.344 194.558 284.546Z" fill="#E4F3FF"></path><path d="M550.788 379.279C550.788 379.279 550.562 380.409 549.883 380.636C549.318 380.749 548.753 381.427 548.526 381.54C548.3 381.766 547.169 382.219 547.509 382.558C547.848 382.897 549.318 381.879 549.657 381.766C549.997 381.653 549.544 383.236 549.657 383.576C549.77 383.915 552.597 384.593 552.711 383.463C552.937 382.332 552.371 380.975 552.484 380.749C552.597 380.522 552.711 379.957 552.711 379.957L550.788 379.279Z" fill="#C69076"></path><path d="M549.657 383.236C549.657 383.236 549.205 386.855 549.431 387.081C549.657 387.307 549.77 387.307 549.884 386.968C549.884 386.629 550.449 383.463 550.449 383.463C550.449 383.463 550.675 387.76 550.788 388.099C550.788 388.212 551.241 388.325 551.241 388.099C551.241 387.873 551.354 383.576 551.354 383.576C551.354 383.576 551.58 387.647 551.693 387.76C551.806 387.873 552.145 387.873 552.145 387.533C552.145 387.194 552.145 383.463 552.145 383.463C552.145 383.463 552.484 386.403 552.711 386.516C552.824 386.516 553.163 386.629 553.05 385.837C552.937 385.046 552.824 383.236 552.824 383.236H549.657Z" fill="#C69076"></path><path d="M512.227 335.176C512.227 335.176 511.662 334.046 511.436 333.141C511.209 332.236 510.192 331.105 509.739 330.766C509.287 330.54 506.008 328.165 505.668 328.165C505.329 328.165 505.555 328.844 505.782 329.07C506.121 329.296 508.722 331.332 508.722 331.332C508.722 331.332 505.442 329.07 505.103 329.183C504.764 329.296 504.538 329.635 504.877 330.088C504.877 330.088 504.085 330.54 504.877 331.218L506.46 332.462C506.46 332.462 505.555 332.01 505.895 332.689C506.121 333.028 507.93 334.159 508.269 334.611C508.609 334.95 510.983 336.081 510.983 336.081L512.227 335.176Z" fill="#C69076"></path><path d="M531.451 435.82H530.66C530.66 435.82 530.886 432.767 530.207 432.767C529.416 432.767 527.606 435.254 526.475 435.707C525.345 436.046 519.691 436.385 519.577 435.368C519.577 434.35 521.726 433.897 522.518 433.558C523.196 433.219 526.589 429.94 527.154 429.6C527.719 429.261 528.737 427.226 528.737 427.226H531.79C531.79 427.226 532.13 428.922 532.356 430.279C532.469 430.731 532.469 431.183 532.469 431.523C532.469 432.54 531.451 435.82 531.451 435.82Z" fill="#C69076"></path><path d="M546.378 435.255H545.699V432.428C545.134 432.428 543.212 434.237 542.646 434.802C542.081 435.368 541.289 435.255 538.801 435.481C536.314 435.594 536.087 434.124 536.54 433.672C536.879 433.219 538.236 432.993 538.801 432.654C539.48 432.315 542.081 429.374 542.759 428.696C543.438 428.017 543.89 425.982 543.89 425.982L546.83 426.208C546.83 426.208 546.83 428.017 547.17 429.487C547.17 429.601 547.283 429.714 547.283 429.827C547.509 431.41 546.378 435.255 546.378 435.255Z" fill="#C69076"></path><path d="M538.802 339.813C538.802 339.813 540.159 342.753 539.48 345.241C539.48 345.241 543.777 344.675 543.89 344.11C544.003 343.658 543.325 339.021 543.89 337.664C544.343 336.307 538.802 339.813 538.802 339.813Z" fill="#C69076"></path><path d="M538.688 344.223C538.688 344.223 536.201 345.354 535.07 345.58C533.939 345.919 531.564 347.163 532.13 351.46C532.582 355.644 533.6 359.263 534.052 361.072C534.391 362.881 534.617 367.518 534.391 369.779C534.391 369.779 540.611 370.797 547.848 368.762C547.848 368.762 546.265 365.03 546.265 364.012C546.265 362.994 549.883 354.626 549.997 353.269C550.11 351.912 550.562 346.258 548.526 345.127C546.491 343.997 544.908 344.336 544.003 343.77C542.985 343.431 539.932 343.77 538.688 344.223Z" fill="#9DBCDC"></path><path d="M538.688 350.781C538.688 350.781 539.706 345.693 534.731 345.693C530.433 345.693 526.363 344.901 525.684 344.562C525.006 344.223 522.405 342.866 520.935 341.509C519.578 340.039 512.114 334.385 512.114 334.385L510.079 336.533C510.079 336.533 517.994 345.127 519.238 345.919C520.482 346.71 531.225 352.704 532.582 352.93C533.939 353.043 537.784 354.061 538.688 350.781Z" fill="#9DBCDC"></path><path d="M554.068 366.387C554.181 368.196 553.276 380.409 553.276 380.409L549.77 380.862C549.77 380.862 549.997 368.762 550.223 365.935C550.336 365.143 550.11 363.899 549.77 362.429C549.544 361.524 549.318 360.62 549.092 359.828C548.413 357.453 547.735 355.305 547.735 355.305C547.735 355.305 543.89 345.127 548.753 345.58C548.753 345.58 550.562 347.502 551.354 350.555C552.145 353.609 553.05 358.245 553.05 360.054C553.05 361.864 553.954 365.143 554.068 366.387Z" fill="#9DBCDC"></path><path d="M535.07 369.666C535.07 369.666 533.939 372.267 533.826 372.946C533.713 373.624 530.207 382.332 529.981 384.933C529.755 387.533 528.963 394.432 528.737 395.449C528.511 396.467 529.302 400.877 529.416 401.895C529.529 402.913 529.529 419.084 528.285 427.112C528.285 427.112 531.112 428.356 533.147 427.112C533.147 427.112 536.653 414.673 536.427 407.436C536.201 400.199 535.296 397.146 536.427 394.318C537.558 391.378 544.116 382.671 544.795 381.766C545.473 380.862 549.544 375.773 545.699 370.232C541.855 364.578 535.07 369.666 535.07 369.666Z" fill="#AAD371"></path><path d="M548.64 393.414C548.3 395.675 548.64 398.728 549.431 407.21C550.11 415.691 548.187 425.868 548.187 425.868C545.7 426.773 542.759 425.868 542.759 425.868C542.872 425.303 542.759 405.287 542.759 403.478C542.759 401.669 542.194 399.633 542.081 397.598C541.968 396.241 541.289 393.64 540.611 391.039C540.385 390.247 540.159 389.456 539.932 388.664C539.819 388.212 539.706 387.759 539.593 387.42C538.575 383.802 537.218 370.119 537.218 370.119C537.218 370.119 544.908 363.899 548.64 369.779C552.371 375.546 550.449 379.844 550.336 380.522C550.11 381.201 548.979 391.039 548.64 393.414Z" fill="#AAD371"></path><path d="M533.713 359.263C533.713 359.263 534.391 370.232 532.356 376.338C532.356 376.338 540.498 377.695 550.788 374.19C550.788 374.19 547.961 366.839 548.074 365.708C548.187 364.578 551.128 351.121 549.771 348.181C548.3 345.24 534.278 349.538 533.713 359.263Z" fill="#9DBCDC"></path><path d="M540.385 327.6C538.576 327.487 533.826 328.278 534.731 335.403C535.635 342.527 538.236 341.961 540.724 340.944C543.325 340.039 545.926 334.272 545.813 332.802C545.7 331.332 545.7 327.826 540.385 327.6Z" fill="#C69076"></path><path d="M534.731 332.236C534.731 332.236 536.992 334.611 539.141 335.176C539.141 335.176 540.95 337.89 543.777 338.456C543.777 338.456 549.318 332.349 544.003 328.391C538.688 324.433 534.504 329.974 534.731 332.236Z" fill="#353A3D"></path><path d="M538.575 334.159C538.575 333.82 539.48 332.915 540.158 333.707C540.837 334.498 539.819 336.76 539.367 336.76C538.915 336.76 538.462 335.629 538.575 334.159Z" fill="#C69076"></path><path d="M545.473 380.975C545.36 381.088 541.629 389.569 540.611 391.039C540.385 390.248 540.158 389.456 539.932 388.664C539.932 388.664 545.36 381.088 545.473 380.975Z" fill="#8FBF55"></path><path d="M549.997 353.835C549.997 353.835 550.223 359.263 549.771 362.542C549.544 361.637 549.318 360.733 549.092 359.941C549.205 359.715 549.884 354.626 549.997 353.835Z" fill="#16284D"></path><path d="M541.855 327.147C541.855 327.147 548.3 327.034 547.283 338.116C546.491 346.597 549.657 350.781 549.205 352.025C548.753 353.269 547.283 355.305 543.89 353.495C540.498 351.573 541.742 342.753 539.932 338.908C538.123 335.063 535.183 332.462 535.183 332.462C535.183 332.462 535.861 326.016 541.855 327.147Z" fill="#353A3D"></path><path d="M533.147 349.651C533.147 349.651 531.677 354.852 531.338 356.096C530.886 357.679 533.034 360.733 534.844 359.828C536.653 358.923 533.147 349.651 533.147 349.651Z" fill="#9DBCDC"></path><path d="M546.378 435.254H545.699V432.427C545.134 432.427 543.212 434.236 542.646 434.802C542.081 435.367 541.289 435.254 538.801 435.48C536.314 435.593 536.087 434.123 536.54 433.671C536.879 433.219 538.236 432.993 538.801 432.653C541.402 432.766 544.682 429.035 546.265 429.035C547.056 429.035 547.056 429.487 547.056 429.6C547.056 429.713 547.17 429.826 547.17 429.939C547.509 431.409 546.378 435.254 546.378 435.254Z" fill="#9DBCDC"></path><path d="M531.451 435.82H530.66C530.66 435.82 530.886 432.767 530.207 432.767C529.416 432.767 527.606 435.254 526.475 435.707C525.345 436.046 519.691 436.385 519.577 435.367C519.577 434.35 521.726 433.897 522.518 433.558C524.892 433.558 528.737 430.957 529.868 430.392C530.999 429.826 532.356 430.166 532.356 430.166C532.469 430.618 532.469 431.07 532.469 431.41C532.469 432.54 531.451 435.82 531.451 435.82Z" fill="#9DBCDC"></path><path d="M320.213 54.5059C320.213 54.5059 317.273 55.976 317.951 59.8208C318.63 63.7787 318.969 64.231 318.178 65.8142C317.386 67.3973 316.368 73.843 317.16 75.0869C317.838 76.3309 326.206 69.659 327.337 64.0049C328.468 58.4638 326.659 55.976 325.98 54.9583C325.415 54.0536 322.814 53.149 320.213 54.5059Z" fill="#0E2D3D"></path><path d="M452.284 226.924C452.284 226.924 468.838 178.252 437.145 163.254C405.451 148.115 378.569 170.046 373.475 181.789C368.381 193.533 369.796 215.039 374.041 230.037C378.427 245.034 377.72 267.814 368.381 275.454C358.902 283.095 347.3 295.687 347.866 321.438C348.29 337.426 410.686 280.548 410.686 280.548L452.284 226.924Z" fill="#16202E"></path><path d="M407.857 284.792C407.857 284.792 381.823 290.593 371.494 296.535C361.165 302.619 338.244 330.351 338.244 342.236C338.244 354.121 438.56 365.299 438.56 365.299L457.519 434.769C457.519 434.769 508.172 422.46 514.256 412.131C520.34 401.803 495.013 328.37 490.627 313.372C486.241 298.233 467.989 287.621 446.907 284.65C425.826 281.82 407.857 284.792 407.857 284.792Z" fill="#1E5083"></path><path d="M445.209 284.51C445.209 284.51 444.643 316.203 419.6 317.052C394.557 318.042 399.792 286.773 399.792 286.773C399.792 286.773 418.044 279.275 445.209 284.51Z" fill="#C69076"></path><path d="M455.821 189.146C455.821 189.146 464.735 240.082 439.408 276.728C413.233 314.788 455.821 189.146 455.821 189.146Z" fill="#16202E"></path><path d="M439.833 262.154C439.833 262.154 438.135 277.294 440.965 286.632C443.936 296.111 402.622 296.253 402.622 288.613C402.622 279.84 406.866 272.483 402.905 257.485C398.943 242.346 439.833 262.154 439.833 262.154Z" fill="#C69076"></path><path d="M407.715 264.135C407.715 264.135 420.732 277.718 437.428 265.55C437.428 265.55 436.013 274.181 424.128 275.313C412.101 276.445 407.715 264.135 407.715 264.135Z" fill="#A77860"></path><path d="M424.128 171.46C424.128 171.46 457.095 181.223 452.284 226.924C447.615 272.625 426.109 270.219 424.128 270.644C422.147 270.927 396.538 272.625 388.473 217.161C380.408 161.698 424.128 171.46 424.128 171.46Z" fill="#C69076"></path><path d="M415.638 191.835C415.638 191.835 433.466 220.274 452.425 226.924C452.425 226.924 462.754 179.101 420.166 169.196C377.72 159.151 384.37 217.444 387.482 233.008C387.482 232.866 396.255 210.087 415.638 191.835Z" fill="#16202E"></path><path d="M391.585 187.59C391.585 187.59 401.065 169.338 416.912 168.489C432.758 167.64 442.238 181.506 442.238 181.506C442.238 181.506 436.013 165.942 416.912 165.942C397.811 165.942 391.585 187.59 391.585 187.59Z" fill="#88C0FF"></path><path d="M462.607 435.28H504.574V430.4H462.607V435.28Z" fill="#9DBCDC"></path><path d="M456.294 331.278L467.464 435.28H320.551L309.381 331.278H456.294Z" fill="#9DBCDC"></path><path d="M397.49 381.451C398.756 387.744 395.803 393.626 390.742 394.584C385.681 395.542 380.62 391.301 379.355 385.144C378.089 378.851 381.042 372.968 386.103 372.011C391.023 370.916 396.225 375.157 397.49 381.451Z" fill="#E4F3FF"></path><path d="M277.807 25.4441H314.898V52.2446V57.8987L309.244 52.2446H277.807V25.4441Z" fill="#FBC922"></path><path d="M318.969 137.735C318.969 137.735 318.63 138.413 318.064 139.205C317.612 139.77 316.368 141.919 315.803 142.145C315.237 142.258 313.541 142.597 313.315 143.615C313.202 144.633 313.089 145.311 314.785 145.311C316.481 145.424 317.612 145.537 318.404 144.294C319.195 143.05 320.552 142.258 320.552 142.258V145.424H321.231C321.231 145.424 321.57 142.145 321.683 141.919C321.909 141.693 322.362 139.205 320.778 137.848C319.308 136.378 318.969 137.735 318.969 137.735Z" fill="#163342"></path><path d="M315.916 142.032C315.916 142.032 317.499 142.371 318.065 142.032C318.63 141.693 320.666 138.3 321.344 138.074C321.344 138.074 320.666 136.717 319.082 137.735C318.969 137.735 316.255 141.466 315.916 142.032Z" fill="#C69076"></path><path d="M300.876 84.0204C300.876 84.0204 299.858 84.2466 299.406 83.6812C299.067 83.2289 298.388 82.8896 298.162 82.7765C297.823 82.6634 297.144 81.8719 296.918 82.2111C296.692 82.5504 298.049 83.455 298.275 83.7943C298.501 84.0204 296.918 84.1335 296.692 84.3597C296.466 84.5858 296.805 87.1867 297.823 86.9606C298.841 86.7344 299.858 85.8297 300.085 85.8297C300.311 85.8297 300.876 85.7167 300.876 85.7167V84.0204Z" fill="#C69076"></path><path d="M297.031 84.4724C297.031 84.4724 293.865 85.264 293.639 85.4902C293.526 85.7163 293.526 85.9425 293.865 85.8294C294.204 85.7163 296.918 85.1509 296.918 85.1509C296.918 85.1509 293.3 86.7341 293.073 86.9602C292.96 87.0733 293.073 87.4126 293.186 87.4126C293.3 87.4126 297.031 86.0556 297.031 86.0556C297.031 86.0556 293.639 87.5256 293.526 87.7518C293.413 87.8649 293.639 88.2041 293.865 88.0911C294.091 87.978 297.37 86.7341 297.37 86.7341C297.37 86.7341 294.996 87.978 294.996 88.2041C294.996 88.3172 295.109 88.6565 295.674 88.3172C296.24 87.978 297.823 87.2995 297.823 87.2995L297.031 84.4724Z" fill="#C69076"></path><path d="M327.563 139.77C327.563 139.77 325.867 142.371 325.189 142.936C325.189 142.936 323.606 143.502 323.492 144.633C323.379 145.763 323.379 146.442 325.189 146.442C326.998 146.442 328.242 146.216 328.581 145.085C328.92 143.954 329.599 143.276 329.599 143.276V145.537H330.051C330.051 145.537 330.164 143.276 330.164 142.936C330.164 142.484 330.504 140.901 329.599 140.222C328.694 139.431 327.563 139.77 327.563 139.77Z" fill="#163342"></path><path d="M307.339 355.673C307.339 355.673 307.75 353.621 310.896 353.621C315.137 353.621 315.547 359.777 314.863 363.47C313.906 368.531 312.127 370.583 315.547 383.579C315.547 383.579 307.887 367.437 309.118 362.649C309.802 359.229 307.339 355.673 307.339 355.673Z" fill="#3A3F47"></path><path d="M283.263 396.301C283.263 396.301 281.485 395.344 281.485 394.386C281.485 393.428 281.075 392.06 280.938 391.65C280.664 391.103 280.664 389.051 279.98 389.461C279.296 389.735 279.98 392.744 279.98 393.428C279.98 394.112 277.792 392.334 277.244 392.334C276.56 392.334 273.961 396.438 275.603 397.395C277.244 398.49 279.57 398.49 279.844 398.627C280.117 398.763 281.348 399.174 281.348 399.174L283.263 396.301Z" fill="#C69076"></path><path d="M277.518 392.333C277.518 392.333 272.32 389.461 271.773 389.598C271.225 389.734 271.089 390.008 271.636 390.281C272.046 390.555 276.56 393.154 276.56 393.154C276.56 393.154 269.858 390.965 269.447 390.965C269.174 390.965 268.9 391.513 269.174 391.786C269.447 391.923 275.876 394.522 275.876 394.522C275.876 394.522 269.584 392.47 269.31 392.607C269.037 392.744 268.9 393.291 269.31 393.565C269.721 393.701 275.466 396.027 275.466 396.027C275.466 396.027 270.815 394.796 270.541 395.069C270.405 395.206 270.131 395.753 271.362 396.027C272.593 396.3 275.329 397.258 275.329 397.258L277.518 392.333Z" fill="#C69076"></path><path d="M298.858 400.268C298.858 400.268 290.377 398.353 288.735 397.943C286.82 397.396 283.127 396.438 283.127 396.438L281.212 399.311C281.212 399.311 292.155 404.919 294.207 405.74C296.122 406.424 301.184 408.339 301.184 408.339L298.858 400.268Z" fill="#C69076"></path><path d="M262.06 435.424C262.06 435.424 259.598 445.958 259.461 448.009C259.324 450.061 252.211 477.694 251.664 479.062C251.117 480.43 254.4 481.661 255.221 480.703C256.178 479.746 263.291 464.425 264.796 461.552C266.438 458.679 270.405 452.113 270.678 445.41C270.952 438.844 262.06 435.424 262.06 435.424Z" fill="#DE9673"></path><path d="M260.282 438.708C260.282 438.708 264.112 448.831 265.207 450.609C266.301 452.387 275.74 479.199 276.15 480.704C276.424 482.072 279.844 481.114 279.98 479.883C280.254 478.652 277.518 461.963 277.245 458.817C276.971 455.533 276.424 447.052 272.867 441.444C269.447 435.698 260.282 438.708 260.282 438.708Z" fill="#C69076"></path><path d="M280.117 479.883C280.117 479.883 275.877 478.925 275.74 478.788C275.603 478.651 275.603 478.378 275.056 478.651C274.509 478.925 274.235 479.883 273.688 480.156C273.141 480.43 269.721 481.661 267.806 482.755C267.122 483.166 264.249 484.397 263.839 485.354C263.428 486.312 263.702 487.68 268.626 487.133C273.688 486.586 279.16 486.996 280.254 486.312C281.485 485.765 280.528 481.387 280.117 479.883Z" fill="#9DBCDC"></path><path d="M255.494 480.841C255.494 480.841 251.527 478.926 251.39 478.789C251.254 478.652 251.254 478.379 250.706 478.516C250.022 478.652 249.749 479.473 249.065 479.61C248.518 479.747 244.824 480.157 242.772 480.841C242.088 481.115 238.942 481.662 238.395 482.483C237.848 483.303 237.711 484.808 242.772 485.218C247.834 485.766 253.169 487.407 254.263 486.997C255.494 486.86 255.631 482.346 255.494 480.841Z" fill="#9DBCDC"></path><path d="M296.533 420.65C296.533 420.65 263.291 427.9 260.282 438.707C260.282 438.707 266.301 437.065 272.183 440.348C272.183 440.348 287.778 440.485 303.236 440.348C305.151 440.348 318.693 436.518 316.642 425.027C314.453 413.4 296.533 420.65 296.533 420.65Z" fill="#9DBCDC"></path><path d="M302.278 374.413C302.825 374.824 303.235 375.508 303.646 376.192C304.056 376.876 304.33 377.56 304.603 378.244C305.151 379.749 305.561 380.98 305.561 380.98C305.561 380.98 313.495 376.876 311.58 375.234C309.665 373.593 308.844 367.574 308.844 367.574C308.844 367.574 300.636 372.772 302.278 374.413Z" fill="#C69076"></path><path d="M292.976 359.503C292.976 359.503 291.334 361.965 293.797 367.027C293.797 367.027 294.481 371.404 294.07 372.362C293.66 373.319 296.122 372.909 296.533 373.319C296.943 373.73 298.174 376.192 300.226 377.15C302.278 378.244 309.391 371.268 309.118 368.668C308.844 365.933 311.443 353.347 302.278 355.399C292.976 357.451 292.976 359.503 292.976 359.503Z" fill="#C69076"></path><path d="M293.113 365.248C293.113 365.248 289.009 354.442 300.363 353.347C311.717 352.39 309.528 366.069 309.254 370.447C309.254 370.447 307.75 364.291 302.415 365.522C297.08 366.753 295.712 365.796 293.113 365.248Z" fill="#3A3F47"></path><path d="M302.688 363.607C302.962 362.239 305.424 362.239 305.698 364.017C305.971 365.796 304.603 367.984 303.783 367.3C302.962 366.753 302.278 365.659 302.688 363.607Z" fill="#C69076"></path><path d="M303.509 376.192C303.919 376.876 304.193 377.56 304.467 378.244C306.929 376.192 307.887 371.677 307.887 371.677C306.382 374.003 303.509 376.192 303.509 376.192Z" fill="#A77860"></path><path d="M304.193 379.612C304.193 379.612 297.216 387.546 296.396 388.23C295.575 388.914 292.839 394.522 296.396 397.942C296.396 397.942 296.669 401.499 297.353 403.004C298.037 404.372 297.49 418.598 296.533 420.24C295.575 421.881 309.802 427.353 316.641 425.164C316.641 425.164 314.726 415.999 314.042 411.348C313.358 406.697 316.231 393.154 316.231 389.461C316.231 385.767 313.769 376.602 311.306 375.508C308.844 374.413 304.193 379.612 304.193 379.612Z" fill="#5F8CC9"></path><path d="M293.093 420.05L267.919 428.444L268.438 430.001L293.612 421.607L293.093 420.05Z" fill="#6E6760"></path><path d="M269.464 428.663L248.258 412.708L247.271 414.02L268.477 429.975L269.464 428.663Z" fill="#6E6760"></path><path d="M274.782 426.259C274.509 425.712 274.509 424.891 276.15 423.66C277.792 422.429 281.348 419.146 282.716 418.872C284.084 418.598 285.042 419.146 285.589 419.146C286.136 419.009 286.82 422.292 286.82 422.292L274.782 426.259Z" fill="#C69076"></path><path d="M285.726 419.008C285.726 419.008 292.839 416.136 294.07 415.452C295.301 414.905 301.184 412.853 301.731 412.579C302.278 412.305 304.877 398.626 305.151 394.932C305.424 391.376 305.561 383.852 309.665 384.126C313.632 384.399 314.726 387.135 314.179 392.333C313.632 397.532 310.759 416.136 309.391 416.82C308.16 417.504 293.249 420.376 286.136 422.565C278.749 424.754 285.726 419.008 285.726 419.008Z" fill="#C69076"></path><path d="M307.75 356.357C307.75 356.357 309.391 359.366 309.255 361.692C309.255 361.692 310.759 358.135 307.75 356.357Z" fill="#5F8CC9"></path><path d="M328.694 90.5792C328.694 90.5792 330.843 93.4063 331.408 96.7988C331.974 100.191 331.069 111.386 331.069 113.083C331.069 114.779 332.652 118.85 332.313 122.016C331.974 125.182 330.843 140.675 330.843 140.675L327.564 139.996C327.564 139.996 327.79 124.165 327.564 122.921C327.337 121.564 326.998 116.814 326.885 116.362C326.772 115.797 322.022 101.661 322.022 99.2866C322.022 96.5726 323.493 86.6213 328.694 90.5792Z" fill="#1D3B54"></path><path d="M317.838 91.5967C317.838 91.5967 314.22 105.167 313.88 107.089C313.428 109.011 312.863 110.481 312.863 111.273C312.863 113.082 313.541 116.136 313.541 116.136L318.065 137.734H322.362C322.362 137.734 319.987 124.73 319.874 122.242C319.761 119.641 317.838 116.136 318.291 115.005C318.63 113.874 324.51 101.548 324.51 101.548C324.51 101.548 328.807 87.6388 317.838 91.5967Z" fill="#1D3B54"></path><path d="M325.189 142.936C325.189 142.936 326.998 143.954 328.129 142.71C329.034 141.692 329.599 140.222 329.599 140.222L327.677 139.77L325.189 142.936Z" fill="#C69076"></path><path d="M319.309 68.5281C319.309 68.5281 317.838 68.6412 316.708 69.8851C315.577 71.129 314.559 72.9383 314.22 73.6168C313.881 74.2953 309.81 80.1756 309.697 80.2886C309.47 80.4017 307.435 81.0802 306.078 81.5326C303.929 82.211 299.745 83.7942 299.745 83.7942L300.537 86.3951C300.537 86.3951 308.453 83.7942 310.375 83.3419C312.75 82.7765 318.404 75.6523 318.404 75.6523C318.404 75.6523 322.588 70.6766 319.309 68.5281Z" fill="#285173"></path><path d="M321.909 67.5105C321.909 67.5105 319.987 68.4151 319.308 68.5282C318.63 68.6413 316.029 72.0338 315.69 73.1646C315.237 74.4085 315.69 76.2178 316.594 78.3664C317.499 80.515 316.594 81.1935 317.047 83.342C317.499 85.4906 317.386 93.5194 317.273 94.6503C317.16 95.8942 329.599 97.5904 332.087 95.4418C332.087 95.4418 330.391 88.2046 328.468 86.1691C328.016 85.7168 328.129 82.7766 328.355 81.985C328.694 81.1935 331.974 75.7655 331.974 75.7655C331.974 75.7655 332.2 70.1114 330.73 69.0936C329.486 68.0759 326.093 67.7366 325.528 67.6236C324.849 67.3974 323.153 67.2843 321.909 67.5105Z" fill="#9DBCDC"></path><path d="M321.005 65.2487C321.005 65.2487 321.118 65.8141 321.118 66.4926C321.118 66.7187 321.118 67.058 321.231 67.3972C321.344 68.3019 321.344 69.3196 321.344 69.885C321.344 69.885 323.379 71.9205 325.528 67.6234C325.528 67.6234 324.623 65.8141 325.302 63.4394C325.98 61.0646 321.005 65.2487 321.005 65.2487Z" fill="#C69076"></path><path d="M315.464 79.1578C315.464 79.1578 315.011 75.9915 315.464 74.0691C315.464 74.0691 315.464 75.7653 316.368 78.027L315.464 79.1578Z" fill="#183C59"></path><path d="M326.998 67.9628C326.998 67.9628 325.641 72.0338 321.909 71.6945C318.178 71.3553 320.1 68.302 320.1 68.302C320.1 68.302 321.005 67.7366 321.344 67.7366C321.57 67.7366 325.528 67.6235 325.528 67.6235L326.998 67.9628Z" fill="#C69076"></path><path d="M320.1 68.189C320.1 68.189 318.178 73.6169 318.178 79.158C318.178 84.699 318.065 93.6325 317.386 96.4596C316.708 99.2866 314.785 108.107 314.785 108.107L313.315 107.315C313.315 107.315 316.934 93.2933 317.273 92.2755C317.499 91.2578 317.047 80.628 316.821 79.7234C316.594 78.8187 315.464 74.8608 315.577 73.73C315.803 72.373 317.047 70.3375 319.195 68.5282L320.1 68.189Z" fill="#285173"></path><path d="M326.32 67.7368C326.32 67.7368 325.076 71.5816 324.51 76.6703C323.945 81.646 326.433 104.828 328.129 110.03L334.688 109.012C334.688 109.012 333.331 92.6149 331.408 89.6748C329.486 86.7347 328.921 84.0207 330.956 77.8012C332.991 71.5816 330.051 68.5284 330.051 68.5284C330.051 68.5284 326.885 67.8499 326.32 67.7368Z" fill="#285173"></path><path d="M319.195 84.246L327.111 97.929L335.932 92.8403L328.355 78.9312L319.195 84.246Z" fill="#616161"></path><path d="M320.213 84.6989L327.224 96.9118L335.027 92.3885L328.355 80.0625L320.213 84.6989Z" fill="#E0CEC7"></path><path d="M322.814 83.6815L322.249 82.7768L325.415 80.9675L326.093 81.7591L322.814 83.6815Z" fill="#616161"></path><path d="M323.153 93.2927C323.153 93.2927 323.493 93.2927 323.719 93.1797C323.719 93.1797 323.945 93.0666 324.171 92.9535C324.284 92.9535 324.284 92.8404 324.284 92.8404C324.397 92.8404 324.85 92.7273 325.189 92.5012C325.528 92.275 326.772 90.8049 326.772 90.8049L326.207 89.9003L325.754 88.9956C325.754 88.9956 323.153 89.1087 322.814 89.3349C322.814 89.3349 322.701 89.3349 322.701 89.4479C322.362 89.6741 322.249 89.9003 322.136 90.0133C322.136 90.0133 321.57 90.4657 321.683 90.6918C321.683 90.918 321.796 91.1442 322.023 91.2573C322.023 91.2573 322.136 91.8227 322.362 92.0488C322.362 92.0488 322.362 92.5012 322.814 92.7273C322.814 92.7273 322.927 93.2927 323.153 93.2927Z" fill="#C69076"></path><path d="M328.468 68.528C328.468 68.528 330.843 67.8495 332.2 70.4504C333.557 73.0513 333.557 74.1821 333.783 75.5391C334.009 76.783 334.688 80.0624 334.801 80.4017C334.914 80.7409 336.61 84.8119 335.818 86.2819C335.027 87.752 326.659 91.9361 326.772 92.2753C326.772 92.6146 325.302 89.109 325.302 89.109C325.302 89.109 328.694 87.1866 329.26 86.6212C330.164 85.7165 332.087 84.6988 331.634 83.568C331.182 82.211 329.825 77.5746 329.486 76.8961C329.26 76.2176 326.546 69.4327 328.468 68.528Z" fill="#285173"></path><path d="M320.665 54.8454C320.665 54.8454 316.368 56.2024 318.743 63.5527C321.005 70.9031 326.885 62.6481 326.32 58.2378C325.641 53.7145 320.665 54.8454 320.665 54.8454Z" fill="#C69076"></path><path d="M318.291 59.1421C318.291 59.1421 320.439 61.1775 323.945 61.5168C323.945 61.5168 325.302 63.1 325.415 63.7784C325.415 63.7784 328.581 58.3505 324.736 55.1842C320.779 51.9048 316.821 57.8982 318.291 59.1421Z" fill="#0E2D3D"></path><path d="M323.945 61.6303C323.945 61.0649 324.284 59.821 325.076 60.1602C325.867 60.4995 325.076 62.9873 324.51 62.8742C324.51 62.9873 323.832 62.9873 323.945 61.6303Z" fill="#C69076"></path><path d="M321.118 66.4925C321.118 66.7187 321.118 67.0579 321.231 67.3972C321.231 67.3972 323.153 67.2841 324.397 64.457C324.171 64.6832 322.814 66.7187 321.118 66.4925Z" fill="#A77860"></path><path d="M469.821 180.932L468.917 180.48C468.917 180.48 470.5 177.2 471.97 171.885L472.988 172.111C471.404 177.539 469.821 180.819 469.821 180.932ZM474.797 163.065L473.779 162.952C474.118 160.125 474.344 157.298 474.344 154.471C474.344 154.244 474.344 154.018 474.344 153.792H475.362C475.362 154.018 475.362 154.244 475.362 154.471C475.362 157.411 475.249 160.238 474.797 163.065ZM473.553 144.745C472.988 141.692 472.196 138.752 471.178 135.925L472.196 135.586C473.214 138.526 474.005 141.466 474.571 144.519L473.553 144.745ZM467.333 127.67C465.863 125.069 464.054 122.581 462.132 120.207L462.923 119.528C464.959 121.903 466.655 124.504 468.238 127.218L467.333 127.67ZM455.912 113.535C453.65 111.499 451.276 109.69 448.675 107.994L449.24 107.089C451.841 108.785 454.329 110.708 456.591 112.743L455.912 113.535ZM440.759 103.47C438.271 102.227 435.444 100.983 432.391 99.8518L432.73 98.9471C435.896 100.191 438.61 101.435 441.211 102.679L440.759 103.47ZM423.684 96.6855C422.666 96.3462 421.648 96.007 420.63 95.6677C418.708 94.9892 416.899 94.4238 414.976 93.7453L415.315 92.7276C417.238 93.4061 419.16 94.0846 420.97 94.65C421.987 94.9892 423.005 95.3285 424.023 95.6677L423.684 96.6855ZM406.382 90.4659C403.329 89.222 400.615 87.9781 397.901 86.6211L398.353 85.7165C400.954 87.0735 403.668 88.3174 406.721 89.4482L406.382 90.4659ZM389.872 81.9848C387.271 80.2885 384.783 78.4792 382.408 76.5568L383.087 75.7652C385.462 77.6876 387.95 79.4969 390.437 81.1932L389.872 81.9848ZM375.624 70.2242C373.588 68.0756 371.44 65.7009 369.517 63.2131L370.309 62.5346C372.231 65.0224 374.267 67.284 376.302 69.4326L375.624 70.2242ZM364.089 55.7496C362.393 53.2618 360.81 50.6609 359.227 47.8339L360.131 47.3815C361.714 50.0955 363.298 52.6964 364.881 55.1842L364.089 55.7496ZM354.929 39.805C353.459 37.091 351.763 34.6032 349.954 32.1154L350.745 31.55C352.555 34.0378 354.251 36.6387 355.834 39.3527L354.929 39.805ZM204.869 32.6808L204.078 32.1154C205.548 29.9668 207.357 27.8183 209.279 25.8959L209.958 26.5744C208.035 28.4968 206.339 30.5323 204.869 32.6808ZM344.074 25.2174C341.925 23.0688 339.663 21.0333 337.289 19.1109L337.967 18.3194C340.342 20.2418 342.717 22.3903 344.865 24.5389L344.074 25.2174ZM216.856 20.4679L216.29 19.6763C218.665 17.867 221.266 16.1708 223.98 14.4746L224.545 15.3792C221.718 16.9624 219.231 18.6586 216.856 20.4679ZM329.825 13.7961C327.224 12.2129 324.51 10.7428 321.796 9.49892L322.249 8.59426C325.076 9.95125 327.79 11.4213 330.391 13.0045L329.825 13.7961ZM232.574 11.0821L232.122 10.1774C234.836 8.93351 237.776 7.6896 240.716 6.67186L241.055 7.6896C238.115 8.70735 235.288 9.83817 232.574 11.0821ZM313.202 6.10645C310.375 5.20179 307.435 4.29713 304.382 3.61864L304.608 2.6009C307.661 3.27939 310.601 4.18405 313.541 5.08871L313.202 6.10645ZM249.876 4.97563L249.65 3.95788C252.59 3.16631 255.643 2.48781 258.696 1.9224L258.923 2.94014C255.756 3.50555 252.816 4.18405 249.876 4.97563ZM295.335 2.03548C292.395 1.58315 289.229 1.35699 286.175 1.13082V0.113082C289.229 0.226165 292.395 0.565412 295.448 1.01774L295.335 2.03548ZM267.856 1.58315L267.743 0.565412C270.796 0.226165 273.962 0 277.016 0V1.01774C273.962 1.13082 270.909 1.35699 267.856 1.58315Z" fill="#C2C2C2"></path></svg>